# xmcd
#
# Track frame offsets: 
#        150
#        18757
#        37441
#        54587
#        73130
#        87357
#        102998
#        118852
#        137362
#        141406
#        156024
#        173257
#        211464
#        226684
#        244720
#
# Disc length: 3580 seconds
#
# Revision: 1
# Processed by: cddbd v1.5.2PL0 Copyright (c) Steve Scherf et al.
# Submitted via: ExactAudioCopy v1.1
#
DISCID=cb0dfa0f
DTITLE=Usher - Hard II Love
DYEAR=2016
DGENRE=R&B
TTITLE0=Need U (Conversation with Priyanka-Chopra)
TTITLE1=Missin U
TTITLE2=No Limit (Feat. Young Thug)
TTITLE3=Bump
TTITLE4=Let Me
TTITLE5=Down Time
TTITLE6=Crash
TTITLE7=Make U A Believer
TTITLE8=Mind Of A Man
TTITLE9=FWM
TTITLE10=Rivals (Feat. Future)
TTITLE11=Tell Me
TTITLE12=Hard II Love
TTITLE13=Stronger
TTITLE14=Champions (From The Motion Picture "Hands Of Stone")
EXTD=
EXTT0=
EXTT1=
EXTT2=
EXTT3=
EXTT4=
EXTT5=
EXTT6=
EXTT7=
EXTT8=
EXTT9=
EXTT10=
EXTT11=
EXTT12=
EXTT13=
EXTT14=
PLAYORDER=
